<svg version="1.2" xmlns="http://www.w3.org/2000/svg" viewBox="0 0 129 28" width="129" height="28">
	<title>Dark</title>
	<style>
		tspan { white-space:pre } 
		.s0 { fill: #f22bb2 } 
		.s1 { fill: #8c30f5 } 
		.s2 { fill: #fe9a22 } 
		.s3 { fill: #2ec5ce } 
		.t4 { font-size: 16px;fill: #000000;font-weight: 700;font-family: "SegoeUIThis-Bold", "Segoe UI This" } 
	</style>
	<path class="s0" d="m0.6 28h9.5c4.5 0 8.1-3.6 8.1-8.2h-9.5c-4.5 0-8.1 3.7-8.1 8.2z"/>
	<path class="s1" d="m1 8.2v11.9c4.5 0 8.2-3.6 8.2-8.1v-12c-4.6 0-8.2 3.6-8.2 8.2z"/>
	<path class="s2" d="m27.4 0h-9.5c-4.5 0-8.1 3.6-8.1 8.2h9.5c4.5 0 8.1-3.7 8.1-8.2z"/>
	<path class="s3" d="m27.4 19.4v-12c-4.5 0-8.1 3.6-8.1 8.1v12c4.5 0 8.1-3.6 8.1-8.1z"/>
	<text id="TaskTracker" style="transform: matrix(1.127,0,0,1.127,30,7)" >
		<tspan x="0" y="11.8" class="t4">T</tspan><tspan  y="11.8" class="t4">a</tspan><tspan  y="11.8" class="t4">s</tspan><tspan  y="11.8" class="t4">k</tspan><tspan  y="11.8" class="t4">T</tspan><tspan  y="11.8" class="t4">r</tspan><tspan  y="11.8" class="t4">a</tspan><tspan  y="11.8" class="t4">c</tspan><tspan  y="11.8" class="t4">k</tspan><tspan  y="11.8" class="t4">e</tspan><tspan  y="11.8" class="t4">r</tspan><tspan  y="11.8" class="t4">
</tspan>
	</text>
</svg>